<svg id="Capa_1" enable-background="new 0 0 512 512" height="512" viewBox="0 0 512 512" width="512" xmlns="http://www.w3.org/2000/svg"><g><g><path d="m502 181.593h-492c-5.523 0-10 4.478-10 10v293.894c0 5.522 4.477 10 10 10h492c5.522 0 10-4.478 10-10v-293.894c0-5.523-4.478-10-10-10zm-10 293.893h-472v-273.893h472z"/><path d="m142.933 161.796c2.351 0 4.713-.825 6.614-2.503l85.005-75.043c6.068 4.293 13.468 6.818 21.447 6.818s15.38-2.525 21.447-6.818l85.006 75.044c1.901 1.679 4.263 2.503 6.614 2.503 2.769 0 5.524-1.144 7.501-3.382 3.654-4.141 3.262-10.46-.879-14.115l-85.579-75.549c2.013-4.581 3.131-9.642 3.131-14.959 0-20.555-16.707-37.276-37.242-37.276-20.536 0-37.243 16.722-37.243 37.276 0 5.318 1.118 10.378 3.132 14.96l-85.578 75.549c-4.14 3.655-4.534 9.975-.878 14.115 1.978 2.237 4.733 3.38 7.502 3.38zm113.067-125.282c9.508 0 17.242 7.75 17.242 17.276s-7.734 17.277-17.242 17.277-17.243-7.751-17.243-17.277 7.735-17.276 17.243-17.276z"/><path d="m55.276 450.152h155.518c5.523 0 10-4.478 10-10s-4.477-10-10-10h-145.518v-183.226h381.447v183.227h-145.517c-5.522 0-10 4.478-10 10s4.478 10 10 10h155.518c5.522 0 10-4.478 10-10v-203.227c0-5.522-4.478-10-10-10h-401.448c-5.523 0-10 4.478-10 10v203.227c0 5.522 4.477 9.999 10 9.999z"/><path d="m265.42 436.33c-1.611-3.932-5.716-6.454-9.949-6.148-4.213.304-7.843 3.306-8.941 7.382-1.063 3.945.462 8.279 3.777 10.675 3.352 2.423 7.978 2.534 11.423.231 3.911-2.617 5.505-7.786 3.69-12.14z"/><path d="m348.753 292.355c-4.178 1.303-7.023 5.171-7.023 9.547v73.412c0 5.522 4.478 10 10 10s10-4.478 10-10v-41.334l31.411 45.485c2.906 4.199 7.769 5.982 12.384 4.539 4.704-1.469 7.744-5.854 7.744-11.266l-.687-71.071c-.054-5.49-4.52-9.903-9.998-9.903h-.099c-5.522.054-9.956 4.574-9.903 10.097l.408 42.19-33.032-47.832c-2.486-3.6-7.023-5.163-11.205-3.864z"/><path d="m328.832 375.314c0-5.522-4.478-10-10-10h-20.708v-16.439h18.444c5.522 0 10-4.478 10-10s-4.478-10-10-10h-18.444v-16.438h20.708c5.522 0 10-4.478 10-10s-4.478-10-10-10h-30.708c-5.522 0-10 4.478-10 10v72.878c0 5.522 4.478 10 10 10h30.708c5.522-.001 10-4.478 10-10.001z"/><path d="m263.307 322.521c0-16.959-13.979-30.756-31.162-30.756h-20.479c-.084 0-.168.001-.251.003-.081.002-.162.005-.243.009-.001 0-.002 0-.002 0-2.21.108-4.232.934-5.837 2.25-.005.004-.011.008-.016.013-.055.045-.108.091-.162.137-.009.008-.018.015-.027.023-.043.037-.084.074-.126.112-.114.102-.225.206-.334.313-.025.025-.051.049-.076.074-.002.002-.005.005-.007.007-.031.031-.06.062-.091.093-.024.024-.048.048-.071.073-.029.031-.058.062-.087.094-.027.03-.055.059-.082.089-.022.024-.044.049-.065.074-.033.037-.067.075-.099.113-.018.021-.036.042-.053.063-.035.042-.07.083-.105.126-.015.018-.029.036-.043.054-.038.047-.076.095-.114.143-.009.011-.017.022-.025.033-.043.056-.086.113-.129.17-.001.002-.003.004-.004.005-1.046 1.417-1.726 3.121-1.902 4.971v.001c-.007.078-.014.157-.02.236-.001.018-.002.036-.003.053-.004.062-.008.125-.011.187-.002.037-.003.074-.004.111-.002.044-.003.088-.005.132-.001.051-.002.103-.002.154 0 .028-.001.056-.001.084v73.55c0 5.522 4.477 10 10 10s10-4.478 10-10v-22.001c3.895-.02 8.025-.037 10.479-.037 17.179-.001 31.159-13.798 31.159-30.756zm-41.612-10.756h10.45c6.05 0 11.162 4.926 11.162 10.756s-5.112 10.756-11.162 10.756c-2.437 0-6.518.017-10.391.036-.02-4.017-.037-8.283-.037-10.792-.001-2.135-.011-6.545-.022-10.756z"/><path d="m98.731 338.539c0 25.792 20.983 46.775 46.775 46.775s46.774-20.983 46.774-46.775c0-25.791-20.983-46.774-46.774-46.774-25.792 0-46.775 20.983-46.775 46.774zm73.549 0c0 14.764-12.011 26.775-26.774 26.775s-26.775-12.012-26.775-26.775 12.011-26.774 26.775-26.774 26.774 12.01 26.774 26.774z"/></g></g></svg>